<svg id="Layer_1" data-name="Layer 1" xmlns="http://www.w3.org/2000/svg" viewBox="0 0 685.86 755.69"><defs><style>.cls-1{fill:#fff;}</style></defs><path class="cls-1" d="M541.85,713.72a19,19,0,0,1-19,19H42a19,19,0,0,1-19-19V42a19,19,0,0,1,19-19H420.14v99.7a22,22,0,0,0,22,22h99.69v43.58h22.93V138.66a24.54,24.54,0,0,0-7.23-17.47L442.09,5.73A19.73,19.73,0,0,0,428.16,0H42A42,42,0,0,0,0,42V713.72a42,42,0,0,0,42,42H522.84a42,42,0,0,0,41.94-42V677.44H541.85ZM443.08,39.25l82.16,82.69-82.16.69Z"/><path class="cls-1" d="M676,629.41l-73-95.89a11.45,11.45,0,0,0-16-2.17l-20.16,15.33L550.51,525.2c.16-.12.34-.2.5-.32C632.1,463.21,647.86,347.05,586.17,266s-177.8-96.88-258.9-35.16a184.76,184.76,0,0,0,87,330.12,188.44,188.44,0,0,0,25.23,1.73,182.49,182.49,0,0,0,91.62-25l17.45,23-20.16,15.33a11.46,11.46,0,0,0-2.2,16.06l73,95.91A48.27,48.27,0,0,0,676,629.41ZM417.37,538.2a161.78,161.78,0,1,1,119.76-31.55A160.71,160.71,0,0,1,417.37,538.2ZM653,678.81A25.34,25.34,0,0,1,617.43,674l-66-86.78,40.36-30.7,66,86.77A25.32,25.32,0,0,1,653,678.81Z"/><rect class="cls-1" x="321.3" y="398.98" width="91.16" height="22.93"/><rect class="cls-1" x="344.23" y="285.05" width="22.38" height="22.93"/><rect class="cls-1" x="344.23" y="455.95" width="22.38" height="22.93"/><rect class="cls-1" x="321.3" y="342.01" width="91.16" height="22.93"/><polygon class="cls-1" points="265.84 246.89 265.84 223.96 94.41 223.96 94.41 189.94 195.18 189.94 195.18 167.01 94.41 167.01 94.41 155.54 71.48 155.54 71.48 600.16 94.41 600.16 94.41 588.7 195.18 588.7 195.18 565.77 94.41 565.77 94.41 531.73 265.84 531.73 265.84 508.8 94.41 508.8 94.41 474.76 242.91 474.76 242.91 451.83 94.41 451.83 94.41 417.79 219.98 417.79 219.98 394.86 94.41 394.86 94.41 360.82 219.98 360.82 219.98 337.89 94.41 337.89 94.41 303.86 242.91 303.86 242.91 280.93 94.41 280.93 94.41 246.89 265.84 246.89"/></svg>