<svg id="Capa_1" data-name="Capa 1" xmlns="http://www.w3.org/2000/svg" viewBox="0 0 2467.15 2454.32"><defs><style>.cls-1{fill:#fff;}</style></defs><g id="icon"><path class="cls-1" d="M1774.64,154.52a21.43,21.43,0,0,1,13.76-27,75.08,75.08,0,0,1,94.5,48.16l19.92,61.3a21.43,21.43,0,1,1-40.76,13.24l-19.92-61.3a32.18,32.18,0,0,0-40.5-20.64A21.42,21.42,0,0,1,1774.64,154.52Z"/><path class="cls-1" d="M1659.5,146.87a21.43,21.43,0,0,1,13.75-27A75.08,75.08,0,0,1,1767.76,168l37.58,115.65a21.43,21.43,0,1,1-40.76,13.24L1727,181.27a32.18,32.18,0,0,0-40.5-20.64A21.42,21.42,0,0,1,1659.5,146.87Z"/><path class="cls-1" d="M724.33,1140.35a21.42,21.42,0,0,1,0-13.25L767.7,993.63a21.43,21.43,0,0,1,40.77,13.25l-40.1,123.37,71.07,102.61a21.83,21.83,0,0,1,3.35,7.74l37.88,178.24a21.43,21.43,0,0,1-41.93,8.91l-37-174-74.66-107.8A21.16,21.16,0,0,1,724.33,1140.35Z"/><path class="cls-1" d="M446.14,889.16l-42.22,130L241,1231.82a21.65,21.65,0,0,0-3.38,6.41l-95.4,293.67a74.36,74.36,0,0,0-.08,46.22,76.6,76.6,0,0,0,4.57,11,74.51,74.51,0,0,0,43.64,37.28,21.43,21.43,0,0,0,13.25-40.75,32.15,32.15,0,0,1-20.63-40.51L277.22,1255l163-212.7a21.57,21.57,0,0,0,3.37-6.4l43.36-133.46a21.43,21.43,0,0,0-40.77-13.25Z"/><path class="cls-1" d="M230.83,1652a74.58,74.58,0,0,1,0-46.23l19.92-61.32a21.43,21.43,0,0,1,40.77,13.25L271.59,1619a32.15,32.15,0,0,0,20.64,40.5A21.43,21.43,0,1,1,279,1700.28,74.93,74.93,0,0,1,230.83,1652Z"/><path class="cls-1" d="M319.42,1725.85a74.33,74.33,0,0,1,.08-46.21L357.05,1564a21.43,21.43,0,0,1,40.77,13.25l-37.57,115.65a32.14,32.14,0,0,0,20.63,40.5,21.43,21.43,0,0,1-13.25,40.76A74.51,74.51,0,0,1,324,1736.87,76.71,76.71,0,0,1,319.42,1725.85Z"/><path class="cls-1" d="M408.13,1799.76a74.69,74.69,0,0,1,0-46.24l55.24-170a21.43,21.43,0,1,1,40.77,13.25l-55.24,170a32.15,32.15,0,0,0,61.15,19.86l160.12-492.85A21.43,21.43,0,0,1,710.94,1307L550.81,1799.87a75,75,0,0,1-142.68-.11Z"/><path class="cls-1" d="M608.05,211.46a21.36,21.36,0,0,1,0-13.23l59.6-183.42a21.43,21.43,0,0,1,40.77,13.25l-59.6,183.42a21.43,21.43,0,0,1-40.77,0Z"/><path class="cls-1" d="M389.53,884a21.39,21.39,0,0,1,0-13.24l79.27-244a21.43,21.43,0,0,1,40.77,13.24L436.92,863.63l394,128L949.47,626.81a21.43,21.43,0,0,1,40.77,13.24L865.07,1025.28a21.43,21.43,0,0,1-27,13.75L403.29,897.77a21.46,21.46,0,0,1-12.47-10.65A20.59,20.59,0,0,1,389.53,884Z"/><path class="cls-1" d="M1066.05,281.22a21.36,21.36,0,0,1,0-13.23l80.51-247.77a21.43,21.43,0,1,1,40.76,13.24l-80.51,247.78a21.43,21.43,0,0,1-40.77,0Z"/><path class="cls-1" d="M962.88,1593.27a21.43,21.43,0,0,1,33-24l104.94,76.25,119.56-35.89a21.64,21.64,0,0,1,8.4-.77l181.21,19a21.42,21.42,0,1,1-4.48,42.61L1228.55,1652,1103,1689.64a21.47,21.47,0,0,1-18.76-3.2L970.66,1604A21.34,21.34,0,0,1,962.88,1593.27Z"/><path class="cls-1" d="M764.16,1866.8a21.34,21.34,0,0,0,7.78,10.7l110.55,80.31,151.94,220.71a21.28,21.28,0,0,0,5,5.19l249.81,181.51a75,75,0,0,0,104.77-16.61,21.43,21.43,0,0,0-34.68-25.19,32.14,32.14,0,0,1-44.89,7.12l-246.85-179.35L915.7,1930.49a21.28,21.28,0,0,0-5.05-5.19l-113.52-82.48a21.43,21.43,0,0,0-33,24Z"/><path class="cls-1" d="M1327,2255.13a21.43,21.43,0,0,1,33-24l52.15,37.88a32.14,32.14,0,0,0,44.89-7.12,21.43,21.43,0,1,1,34.68,25.2,75,75,0,0,1-104.77,16.6l-52.15-37.88A21.43,21.43,0,0,1,1327,2255.13Z"/><path class="cls-1" d="M1378.43,2160.05a21.42,21.42,0,0,1,33-24l98.39,71.47a32.1,32.1,0,0,0,44.89-7.1,21.42,21.42,0,1,1,34.67,25.17,75,75,0,0,1-104.76,16.6l-98.39-71.46A21.41,21.41,0,0,1,1378.43,2160.05Z"/><path class="cls-1" d="M1218.19,1778.75a21.42,21.42,0,0,1,33-24l419.25,304.61a75,75,0,0,1-88.17,121.35l-144.61-105.07a21.43,21.43,0,1,1,25.2-34.68l144.6,105.08a32.14,32.14,0,0,0,37.79-52L1226,1789.46A21.37,21.37,0,0,1,1218.19,1778.75Z"/><path class="cls-1" d="M1.06,1385.94a21.43,21.43,0,0,1,33-24l156,113.32A21.43,21.43,0,0,1,164.8,1510l-156-113.32A21.3,21.3,0,0,1,1.06,1385.94Z"/><path class="cls-1" d="M521.7,1764.22a21.43,21.43,0,0,1,33-24l190.14,138.14,243.51-335.17L678,1317.72a21.43,21.43,0,0,1,25.2-34.68l327.7,238.1a21.44,21.44,0,0,1,4.73,29.93L766.88,1920.9a21.44,21.44,0,0,1-29.94,4.74L529.47,1774.92A21.38,21.38,0,0,1,521.7,1764.22Z"/><path class="cls-1" d="M154.18,932.14a21.44,21.44,0,0,1,33-24L398,1061.32a21.43,21.43,0,0,1-25.2,34.67L162,942.83A21.28,21.28,0,0,1,154.18,932.14Z"/><path class="cls-1" d="M1580.86,1588.82a21.43,21.43,0,0,1,7.79-24l104.94-76.24,2.82-124.79a21.49,21.49,0,0,1,1.84-8.23l74.12-166.46a21.43,21.43,0,0,1,39.16,17.43l-72.37,162.53-3,131.11a21.4,21.4,0,0,1-8.83,16.84l-113.53,82.48a21.43,21.43,0,0,1-33-10.71Z"/><path class="cls-1" d="M1812.57,1873.06l110.55-80.33L2180,1716.44a21,21,0,0,0,6.49-3.19l249.83-181.51A75.15,75.15,0,0,0,2452.88,1427a21.43,21.43,0,0,0-34.68,25.2,32.2,32.2,0,0,1-7.11,44.89l-246.84,179.36-256.85,76.27a21.25,21.25,0,0,0-6.49,3.2l-113.53,82.5a21.43,21.43,0,1,0,25.19,34.67Z"/><path class="cls-1" d="M2322.85,1447a21.44,21.44,0,0,1,7.79-24l52.15-37.89a32.14,32.14,0,0,0,7.11-44.88,21.43,21.43,0,0,1,34.67-25.21A75,75,0,0,1,2408,1419.86l-52.15,37.89a21.43,21.43,0,0,1-29.93-4.73A21.69,21.69,0,0,1,2322.85,1447Z"/><path class="cls-1" d="M2248.31,1368.75a21.45,21.45,0,0,1,7.79-24l98.39-71.47a32.13,32.13,0,0,0,7.1-44.89,21.44,21.44,0,0,1,34.68-25.21,75,75,0,0,1-16.6,104.78l-98.38,71.47a21.44,21.44,0,0,1-33-10.72Z"/><path class="cls-1" d="M1836.17,1403.33a21.42,21.42,0,0,1,7.79-24l419.24-304.6a75,75,0,1,1,88.17,121.35l-144.61,105.07a21.43,21.43,0,0,1-25.19-34.68l144.61-105.06a32.14,32.14,0,1,0-37.79-52L1869.15,1414a21.43,21.43,0,0,1-33-10.71Z"/><path class="cls-1" d="M1086.46,2439.51a21.44,21.44,0,0,1,7.78-24l156-113.36a21.43,21.43,0,1,1,25.2,34.67l-156,113.36a21.44,21.44,0,0,1-29.94-4.73A21.93,21.93,0,0,1,1086.46,2439.51Z"/><path class="cls-1" d="M1218.18,1778.74a21.44,21.44,0,0,1,7.78-24l327.7-238.08a21.42,21.42,0,0,1,29.93,4.74l268.71,369.84a21.43,21.43,0,0,1-4.74,29.94L1640,2072a21.43,21.43,0,0,1-25.19-34.68L1805,1899.14,1561.52,1564l-310.36,225.5a21.44,21.44,0,0,1-29.93-4.74A21.69,21.69,0,0,1,1218.18,1778.74Z"/><path class="cls-1" d="M702.19,2153.64a21.44,21.44,0,0,1,7.78-24l210.76-153.14a21.44,21.44,0,0,1,25.21,34.68L735.17,2164.35a21.43,21.43,0,0,1-29.93-4.73A21.69,21.69,0,0,1,702.19,2153.64Z"/><path class="cls-1" d="M1972.2,242.44a21.43,21.43,0,0,1,20.38-28.06h192.85a21.43,21.43,0,0,1,0,42.86H1992.58A21.43,21.43,0,0,1,1972.2,242.44Z"/><path class="cls-1" d="M884.85,838.89a21.44,21.44,0,0,1,9.67-25.16l154.09-89,79.45-104.32a21.42,21.42,0,0,1,17-8.45h140.33a21.43,21.43,0,0,1,0,42.86H1155.72l-75.63,99.3a21.38,21.38,0,0,1-6.33,5.57L915.94,850.85A21.42,21.42,0,0,1,886.68,843,21.09,21.09,0,0,1,884.85,838.89Z"/><path class="cls-1" d="M1285.43,273.91H1148.78L896.14,184.65a21.39,21.39,0,0,0-7.14-1.22H580.21a75,75,0,0,0-75,75,21.71,21.71,0,0,0,1.06,6.63,21.43,21.43,0,0,0,41.8-6.63,32.14,32.14,0,0,1,32.13-32.14H885.33L1138,315.54a21.15,21.15,0,0,0,7.14,1.23h140.33a21.43,21.43,0,0,0,0-42.86Z"/><path class="cls-1" d="M463.41,372.2a21.71,21.71,0,0,1-1.06-6.63,75,75,0,0,1,75-75h64.46a21.43,21.43,0,0,1,0,42.86H537.36a32.14,32.14,0,0,0-32.15,32.13,21.43,21.43,0,0,1-41.8,6.63Z"/><path class="cls-1" d="M420.55,479.34a21.34,21.34,0,0,1-1.05-6.62,75,75,0,0,1,75-75H616.1a21.44,21.44,0,0,1,0,42.87H494.48a32.13,32.13,0,0,0-32.12,32.13,21.43,21.43,0,0,1-41.81,6.63Z"/><path class="cls-1" d="M380.3,603.14a75,75,0,0,1,71.34-98.27l178.75,0a21.44,21.44,0,0,1,0,42.87H451.63a32.14,32.14,0,1,0,0,64.27H969.86a21.43,21.43,0,0,1,0,42.86H451.63a75.18,75.18,0,0,1-71.33-51.73Z"/><path class="cls-1" d="M1265.05,699.58a21.47,21.47,0,0,1-1-6.62V235.82a21.44,21.44,0,0,1,21.43-21.44h256.42a21.43,21.43,0,0,1,0,42.86h-235V671.53h383.63a21.43,21.43,0,1,1,0,42.86H1285.43a21.42,21.42,0,0,1-20.38-14.8Z"/><path class="cls-1" d="M2047.34,699.58a21.43,21.43,0,0,1,20.38-28.06h260.57a21.43,21.43,0,1,1,0,42.86H2067.72A21.43,21.43,0,0,1,2047.34,699.58Z"/><path class="cls-1" d="M1461,699.6A21.44,21.44,0,0,1,1495.73,677L1628,796.08l123.76,43.32A21.46,21.46,0,0,1,1765,853l43.37,133.46a21.43,21.43,0,1,1-40.76,13.24l-40.09-123.36-117.8-41.25a21.31,21.31,0,0,1-7.26-4.3L1467.06,708.88A21.34,21.34,0,0,1,1461,699.6Z"/><path class="cls-1" d="M2129.93,882,2087.7,752l6.81-267.85a21.5,21.5,0,0,0-1-7.16L1998,183.33a75.08,75.08,0,0,0-94.5-48.16,21.43,21.43,0,1,0,13.24,40.76,32.18,32.18,0,0,1,40.5,20.64l94.29,290.19-6.81,267.85a21.5,21.5,0,0,0,1,7.16l43.37,133.47A21.43,21.43,0,0,0,2129.93,882Z"/><path class="cls-1" d="M1670.1,699.58,1510,206.73a75,75,0,1,1,142.66-46.36l55.23,170a21.43,21.43,0,0,1-40.76,13.25l-55.23-170a32.14,32.14,0,0,0-61.14,19.86l160.13,492.85a21.43,21.43,0,1,1-40.75,13.25Z"/><path class="cls-1" d="M2423.89,1732.79l-59.6-183.42a21.43,21.43,0,0,1,40.76-13.24l59.6,183.41a21.43,21.43,0,0,1-40.76,13.25Z"/><path class="cls-1" d="M1836.17,1403.31,1711,1018.11a21.42,21.42,0,0,1,13.76-27l434.76-141.27a21.43,21.43,0,0,1,27,13.76l79.26,243.95A21.43,21.43,0,0,1,2225,1120.8L2152.4,897.22l-394,128,118.54,364.83a21.43,21.43,0,1,1-40.76,13.24Z"/><path class="cls-1" d="M2033.27,2009.92l-80.51-247.78a21.43,21.43,0,1,1,40.76-13.25L2074,1996.67a21.43,21.43,0,1,1-40.76,13.25Z"/></g></svg>