<?xml version="1.0" encoding="utf-8"?>
<!-- Generator: Adobe Illustrator 25.4.1, SVG Export Plug-In . SVG Version: 6.00 Build 0)  -->
<svg version="1.1" id="Layer_1" xmlns="http://www.w3.org/2000/svg" xmlns:xlink="http://www.w3.org/1999/xlink" x="0px" y="0px"
	 viewBox="0 0 1915.33 1762.15" style="enable-background:new 0 0 1915.33 1762.15;" xml:space="preserve">
<style type="text/css">
	.st0{fill:#FFFFFF;}
	.st1{fill-rule:evenodd;clip-rule:evenodd;fill:#FFFFFF;}
	.st2{stroke:#FFFFFF;stroke-width:73.2373;stroke-miterlimit:10;}
	.st3{fill:#00A54F;}
</style>
<path class="st1" d="M1885.91,1296.61l-251.73-746.37l1.16-3.45c1.55,0.01,3.09,0.01,4.63,0c54.99,6.37,99.65-39.58,110.71-86.15
	c23.22-97.76-111.46-111.76-102-31.84c-5.67,206.71-340.5-115.48-633.9-116.35c19.06-28.74,27.8-77.05,24.42-128.57
	c-3.89-59.25-23.79-122.74-62.39-165.56c-23.07-25.59-17.39-23.49-39.06,0.87c-71.43,80.28-78.04,231.69-37.19,293.26
	c-293.39,0.87-628.23,323.06-633.9,116.35c9.46-79.93-125.22-65.92-102,31.84c11.06,46.57,55.72,92.52,110.71,86.15
	c1.54,0.01,3.08,0.01,4.63,0l1.16,3.45L29.43,1296.61H0c6.46,136.88,138.05,246.15,299.46,246.15
	c161.41,0,292.99-109.27,299.46-246.15h-29.43L317.75,550.24l2.06-6.1c193.78-23.25,454.12-190.29,608.04-142.31
	c1.79,21.98,1.06,42.91,1.1,66.56c-6.38,544.16-11.95,916.18-11.95,916.18c-43.27,21.1-77.7,71.91-72.92,137.98
	c16.97,234.49-289.29,74.35-355.04,239.6h937.27c-65.76-165.25-372.01-5.11-355.04-239.6c4.78-66.08-29.65-116.88-72.92-137.98
	c0,0-5.58-372.02-11.95-916.18c0.04-23.65-0.69-44.58,1.1-66.56c153.93-47.98,414.26,119.06,608.04,142.31l2.06,6.1l-251.73,746.37
	h-29.43c6.46,136.88,138.05,246.15,299.45,246.15s292.99-109.27,299.45-246.15H1885.91z M532.89,1296.61H66.02l233.44-692.12
	L532.89,1296.61z M1382.44,1296.61l233.44-692.12l233.44,692.12H1382.44z"/>
</svg>
