<?xml version="1.0" encoding="utf-8"?>
<!-- Generator: Adobe Illustrator 25.4.1, SVG Export Plug-In . SVG Version: 6.00 Build 0)  -->
<svg version="1.1" id="Layer_1" xmlns="http://www.w3.org/2000/svg" xmlns:xlink="http://www.w3.org/1999/xlink" x="0px" y="0px"
	 viewBox="0 0 2000 1265.93" style="enable-background:new 0 0 2000 1265.93;" xml:space="preserve">
<style type="text/css">
	.st0{fill:#FFFFFF;}
	.st1{fill-rule:evenodd;clip-rule:evenodd;fill:#FFFFFF;}
	.st2{stroke:#FFFFFF;stroke-width:73.2373;stroke-miterlimit:10;}
	.st3{fill:#00A54F;}
</style>
<g>
	<g>
		<path class="st0" d="M1556.88,744.84c-27.05-21.36-61.46-47.91-93.98-72.72c-44.92-33.36-106.64-77.76-187.27-132.68
			c-9.83-6.7-20.25-13.5-30.92-20.34c-5.69-3.63-11.32-7.2-16.98-10.76c-101.03-63.04-224.88-126.63-256.15-142.52l-74.83,23.79
			c-19.75,29.97-104.74,147.03-232.59,156.92c-7.03,0.73-13.99,1.1-20.43,1.1c-28.84,0-48.72-7.81-60.84-23.96
			c-14.45-19.23-15.58-47.55-3.52-89.05c0.33-1.17,0.78-2.32,1.33-3.42c23.63-47.61,71.99-116.33,114.18-174.62
			c-8.13-1.25-16.62-2.5-25.33-3.81c-50.77-7.49-103.24-15.26-130.97-30.96c-12.04-6.85-31.02-18.36-51.76-31.21L230.65,645.57
			l21.54,23.99c0.88,1.07,25.91,32.2,61.14,76.23l0.66-0.88c17.27-23.29,44.42-36.65,74.51-36.65c25.24,0,50.61,9.43,71.44,26.61
			c19.76,16.17,33.14,37.48,39.67,60l24.14-32.9c17.29-23.38,44.46-36.74,74.57-36.74c25.27,0,50.63,9.43,71.43,26.61
			c35.6,29.21,50.74,75.07,41.55,114.62c1.57-0.06,3.11-0.27,4.7-0.27c25.22,0,50.6,9.46,71.44,26.61
			c35.14,28.96,50.38,74.07,41.93,113.25c2.84-0.27,5.68-0.46,8.59-0.46c25.21,0,50.58,9.43,71.44,26.55
			c46.55,38.3,58.24,105.1,26.02,148.87l-16.59,22.4c74.68,25.7,118.18,33.2,118.91,33.36c0.58,0.09,1.19,0.24,1.74,0.34
			c21.27,5.37,84.32,15.11,120.42-4.3c26.09-14.01,45.9-37.6,57.86-54.63l-194.95-94.08c-10.19-4.94-14.51-17.24-9.55-27.47
			c4.93-10.25,17.21-14.53,27.5-9.58l206.71,99.82c1.57-0.12,3.1-0.27,4.71,0c14.14,2.29,55.65,5.4,76.48-8.21
			c25.38-16.63,30.7-55.6,31.74-74.55l-250.99-145.33c-9.84-5.71-13.2-18.31-7.49-28.14c5.71-9.86,18.25-13.21,28.14-7.51
			l257.32,149.02c17.98,1.19,59.8,0.67,78.46-14.4c33.23-27.04,28.99-69.7,26.52-83.77l-297.73-178.74
			c-9.75-5.83-12.89-18.52-7.05-28.23c5.86-9.77,18.55-12.88,28.26-7.05l313.37,188.11c21.67,5.59,71.4,12.7,95.35-31.22
			c17.85-32.78,11.35-62.96-19.64-92.41L1556.88,744.84z"/>
		<path class="st0" d="M662.61,876.34c19.53-26.55,10.99-68.12-19.01-92.74c-13.47-11.14-29.54-17.24-45.27-17.24
			c-17.2,0-31.91,7.11-41.44,19.93L424.75,966.4c-19.49,26.4-10.96,67.96,18.98,92.71c13.44,11.08,29.53,17.21,45.24,17.21
			c17.2,0,31.92-7.08,41.47-19.99l0.23-0.3L662.61,876.34z"/>
		<path class="st0" d="M761.27,924.56c-13.47-11.08-29.56-17.21-45.27-17.21c-13.43,0-25.25,4.49-34.36,12.57
			c-2.52,2.26-108.96,147.67-108.96,147.67c-0.82,1.1-1.31,2.41-2.04,3.57c-1.8,2.93-3.42,5.95-4.62,9.12
			c-9.72,25.76,0.05,58.96,25.59,80.02c13.52,11.14,29.63,17.24,45.36,17.24c17.18,0,31.85-7.11,41.34-19.96l102-140.26
			C799.8,990.85,791.24,949.28,761.27,924.56z"/>
		<path class="st0" d="M883.25,1063.97c-13.49-11.11-29.59-17.24-45.29-17.24c-17.17,0-31.86,7.11-41.38,20.02
			c0,0-70.56,96.25-72.13,100.01c-10.93,25.94-1.12,60.36,25.05,81.97c13.49,11.11,29.62,17.21,45.34,17.21
			c17.16,0,31.86-7.11,41.35-19.99l66.09-89.36C921.75,1130.13,913.2,1088.59,883.25,1063.97z"/>
		<path class="st0" d="M454.49,856.35c16.68-26.12,7.83-66.31-20.68-89.69c-13.52-11.14-29.6-17.24-45.32-17.24
			c-17.18,0-31.88,7.11-41.43,19.96l-42.16,56.98c-19.42,26.37-10.89,68.02,19.04,92.68c13.49,11.11,29.59,17.24,45.3,17.24
			c13.09,0,24.72-4.21,33.72-11.9C405.71,922.03,453.88,857.3,454.49,856.35z"/>
		<path class="st0" d="M1408.53,203.64c-27.01-2.26-58.47-9.64-94.94-18.2c-56.98-13.38-127.91-30.04-202.35-30.04l-5.13,0.02
			c-167.91,1.6-304.6,23.64-325.03,52.38c-4.79,6.71-10.34,14.4-16.27,22.55c-4.38,6.04-8.9,12.24-13.76,18.89
			c-3.72,5.13-7.72,10.62-11.64,16.02c-43.15,59.3-96.33,133.55-121.03,182.59c-9.75,34.42-5.84,46.8-2.59,51.12
			c4.67,6.23,17.76,7.51,27.92,7.51c5.19,0,10.76-0.34,16.77-0.95c122.76-9.51,204.45-142.55,205.28-143.89
			c2.58-4.24,6.64-7.48,11.38-8.99l40.69-12.94l49.23-15.66c2.03-0.64,4.15-0.96,6.24-0.96c3.16,0,6.3,0.73,9.18,2.17
			c1.66,0.84,146.96,73.55,264.33,146.49c8.36,5.2,16.6,10.38,24.6,15.56c9.43,6.09,18.59,12.12,27.34,18.1
			c79.04,53.86,139.68,97.35,184.45,130.51c65.86,48.75,96.99,74.84,99.09,76.58l0.03,0.03l42.27,34.85
			c0.15-0.12,0.33-0.18,0.46-0.24c13.88-6.04,40.56-19.84,70.39-46.94c12.71-11.51,21.83-21.06,30.65-30.27
			c10.8-11.35,21.03-22.03,36.01-34.42c0.34-0.29,0.7-0.58,1.02-0.86l-252.56-448.67C1475.49,198.18,1439.42,206.19,1408.53,203.64z
			"/>
		<path class="st0" d="M485.68,108.73c3.83-6.84,1.72-15.82-4.58-19.65L337.82,1.71c-1.85-1.13-3.86-1.71-6-1.71
			c-4.46,0-8.5,2.46-10.79,6.56L1.89,573.36c-3.8,6.78-1.66,15.76,4.67,19.64l143.23,87.36c5.63,3.42,13.44,1.1,16.83-4.88
			L485.68,108.73z"/>
		<path class="st0" d="M1998.11,573.36L1678.98,6.62c-2.32-4.14-6.36-6.59-10.8-6.59c-2.12,0-4.1,0.58-5.96,1.69L1518.95,89.1
			c-6.35,3.88-8.5,12.86-4.67,19.64l319.11,566.74c3.4,6.07,11.06,8.33,16.88,4.88l143.16-87.34
			C1999.78,589.13,2001.92,580.14,1998.11,573.36z"/>
	</g>
</g>
</svg>
