<svg id="Layer_1" data-name="Layer 1" xmlns="http://www.w3.org/2000/svg" viewBox="0 0 1500 1500"><defs><style>.cls-1{fill:#fff;}</style></defs><circle class="cls-1" cx="889.57" cy="349.78" r="134.16" transform="translate(13.22 731.47) rotate(-45)"/><path class="cls-1" d="M978.82,482.85h-8.05a154.08,154.08,0,0,1-162.78,0h-8c-86.31,0-156.52,70.21-156.52,156.52v89.44c0,8.94,5.36,17.44,13.86,20.57a605.34,605.34,0,0,0,64.4,21.91V639.37a11.36,11.36,0,0,1,11.18-11.18A11.07,11.07,0,0,1,744,639.37V777.55a599.32,599.32,0,0,0,290.68,0V639.37a11.36,11.36,0,0,1,11.18-11.18,11.07,11.07,0,0,1,11.18,11.18V771.29a605.34,605.34,0,0,0,64.4-21.91c8.5-3.13,13.86-11.63,13.86-20.57V639.37C1135.34,553.06,1065.13,482.85,978.82,482.85Z"/><circle class="cls-1" cx="1135.54" cy="134.16" r="134.16" transform="translate(237.72 842.24) rotate(-45)"/><path class="cls-1" d="M1381.31,423.88v89.44c0,8.95-5.37,17.44-13.86,20.57a609.22,609.22,0,0,1-64.4,21.92V423.88a11.07,11.07,0,0,0-11.18-11.18,11.36,11.36,0,0,0-11.18,11.18V562.07A571.68,571.68,0,0,1,1147,579.51c-21.91-63.51-79.6-110.46-148.92-118.06a155.15,155.15,0,0,0,25.49-192.3,121.71,121.71,0,0,1,22.36-1.79h8a154.1,154.1,0,0,0,162.79,0h8C1311.1,267.36,1381.31,337.57,1381.31,423.88Z"/><circle class="cls-1" cx="643.61" cy="134.16" r="134.16" transform="translate(93.64 494.39) rotate(-45)"/><path class="cls-1" d="M732.86,349.64a154.28,154.28,0,0,0,47.85,111.81c-69.32,7.6-127,54.55-148.92,118.06a571.68,571.68,0,0,1-133.72-17.44V423.88a11.07,11.07,0,0,0-11.18-11.18,11.36,11.36,0,0,0-11.18,11.18V555.81a609.22,609.22,0,0,1-64.4-21.92c-8.49-3.13-13.86-11.62-13.86-20.57V423.88c0-86.31,70.21-156.52,156.52-156.52h8a154.1,154.1,0,0,0,162.79,0h8.05a121.71,121.71,0,0,1,22.36,1.79A153.28,153.28,0,0,0,732.86,349.64Z"/><path class="cls-1" d="M1498.29,895.31A82.29,82.29,0,0,1,1462.58,948L872.44,1336.76l-.31.2a96.61,96.61,0,0,1-53.8,16.15,101.52,101.52,0,0,1-24.67-3.07l-.5-.12-227.81-87.58a12.21,12.21,0,0,0-10,.54l-116.43,60L240.1,941.1,450.21,832.91a98.58,98.58,0,0,1,66.88-8.5L963.84,925.8a8.44,8.44,0,0,0,1.08.19c38.74,5,69.23,37,72.54,76l.1,1.23-.24,1.19a12.12,12.12,0,0,0,.13,5.36l.29,1.2,0,1.22c-.08,2.24-.25,4.47-.51,6.66a83.52,83.52,0,0,1-92.49,72.25l-.39-.07L639.61,1040.8a12.17,12.17,0,0,0-9.08,2.13,12.19,12.19,0,0,0,5.11,21.93l305.14,50.33.44.06A107.91,107.91,0,0,0,1061.36,1022v-.14c.19-1.44.33-3,.47-4.74h0a8.57,8.57,0,0,1,3.81-6.49l305.26-201.53a83.64,83.64,0,0,1,115.33,23.62l0,0A83.08,83.08,0,0,1,1498.29,895.31Z"/><path class="cls-1" d="M437.88,1432.05l-128.39,65.16a25.7,25.7,0,0,1-34.43-11L2.91,963.76A25.71,25.71,0,0,1,14.07,929l128.4-65.17a25.7,25.7,0,0,1,34.42,11.05L449,1397.26A25.7,25.7,0,0,1,437.88,1432.05Z"/></svg>