<svg id="Layer_1" data-name="Layer 1" xmlns="http://www.w3.org/2000/svg" viewBox="0 0 621.53 463.25"><defs><style>.cls-1{fill:#fff;fill-rule:evenodd;}</style></defs><path class="cls-1" d="M271.93,301.47c0,14.16,10.17,6.38,16.59,13.47,2.31,2.54,6,11.81,16.21,11.81,24,0,18.36-.94,28.15-11.48,6.38-6.86,16.94-1.39,16.94-12.43a8,8,0,0,0-7.51-7.52H279.45c-4.06,0-7.52,4.11-7.52,6.15Zm98.58,133.88c-11.24,17-33.51,27.9-58.2,27.9s-46.95-10.93-58.19-27.9H12.4a12.4,12.4,0,1,1,0-24.79H261.62a28.18,28.18,0,0,1,1.33-5.9H29.45V369.25c47.15,0,118.39-15.74,178.83-20.62C124.11,336.14,45,353.53,45,353.53v-3s95.2-29.59,184.64-14.19C149.11,308.8,72.85,325.76,72.85,325.76v-3S212,273.94,306.52,362.81a41.3,41.3,0,0,1,6.57,6.44,38.15,38.15,0,0,1,14-13.06c94.25-79.78,226.27-33.44,226.27-33.44v3s-76.18-16.94-156.61,10.51c89.4-15.34,184.51,14.24,184.51,14.24v3s-76.83-16.88-159.6-5.43c58.83,5.87,127.65,21.15,173.55,21.15v35.41H361.68a28.18,28.18,0,0,1,1.33,5.9H609.13a12.4,12.4,0,1,1,0,24.79ZM271.93,283c0,5.58,3,8.88,8.89,8.88h58.75c15.2,0,10.35-15.71,4.1-15.71H278.76a7.32,7.32,0,0,0-6.83,6.83ZM173.54,155.93c7.44,0,29,1.28,33.1-1.74,4.93-3.64,5.37-14.65-7.81-14.65-6.64,0-27.6-1-32,1.45-5.86,3.22-6.13,14.94,6.74,14.94ZM412,145.69c0,3.42-.64,6.4,3.5,8.79,4.45,2.55,25.46,1.45,32.71,1.45,13.93,0,14-16.39-.68-16.39-6.44,0-27-.86-31.57,1.22-1.51.7-4,3.11-4,4.93ZM302.68,10.41c0,7.24-1.1,28.25,1.46,32.7,3.42,6,14.94,5.39,14.94-7.42V11.09c0-14.58-16.4-14.76-16.4-.68ZM209.76,254.32c8.67,0,8.55-2.74,19.3-13.49,3.11-3.1,12.81-11.12,12.81-15.89,0-3.62-4-8.19-7.51-8.19-5.77,0-14.73,11-20.33,16.56-5.45,5.46-12.27,10-9.44,16.56.77,1.78,3.18,4.45,5.17,4.45ZM379.89,70.53c0,5,3.22,8.2,8.19,8.2,3.88,0,6.57-3.48,8.72-5.64,4.24-4.26,20.66-18.52,20.66-23.74,0-7.12-4.28-8.2-9.56-8.2-2.89,0-18.32,16.63-22.38,20.67-2.16,2.15-5.63,4.83-5.63,8.71Zm0,153.73c0,5.35,4.32,8.08,7.68,11.44,3.13,3.13,16.42,17.31,19.26,18.38,3.79,1.44,10.63-.07,10.63-8,0-4.64-10-13.13-13.15-16.22s-11.43-13.15-16.23-13.15c-4.12,0-8.19,3.45-8.19,7.51ZM233.67,78.73a7.93,7.93,0,0,0,7.67-10.35c-1.15-3.28-6-7.5-8.52-10-3.72-3.71-15.54-17.25-20.33-17.25-7.56,0-9.37,6.11-8.13,10.13,1,3.35,14.78,16,18.21,19.42,2.6,2.61,6.59,8,11.1,8Zm-4.78,71.74c0-11.34,3.83-25.51,7.73-33.26a82.26,82.26,0,0,1,7.59-12.91,74.84,74.84,0,0,1,9.11-10.71c27.15-27.19,73-31.62,103.05-9.8,2.09,1.52,4,2.86,5.85,4.4a79.48,79.48,0,0,1,14.64,15.42,59.89,59.89,0,0,1,4.1,6.16c.66,1.09,1.27,2.06,1.76,3,7,13.51,8.34,20.67,9.51,34.93a68.94,68.94,0,0,1-5.7,33.32c-5,11.68-12.51,20.34-20.15,29.72-27.95,34.29-19.72,36.55-24.07,45.62,3.13,1.51,2.59-.18,5.35,2.84,5.4,5.89-.85,12.88-4,12.88H278.76a7.32,7.32,0,0,1-6.83-6.84c0-6.76,3-7,6.83-8.88,0-16.73-13.36-33.2-23.13-45.19l-12.95-16.43C233.89,181.79,228.89,168.38,228.89,150.47Z"/></svg>