<?xml version="1.0" encoding="utf-8"?>
<!-- Generator: Adobe Illustrator 25.4.1, SVG Export Plug-In . SVG Version: 6.00 Build 0)  -->
<svg version="1.1" id="Layer_1" xmlns="http://www.w3.org/2000/svg" xmlns:xlink="http://www.w3.org/1999/xlink" x="0px" y="0px"
	 viewBox="0 0 2918.66 2028.92" style="enable-background:new 0 0 2918.66 2028.92;" xml:space="preserve">
<style type="text/css">
	.st0{fill:#FFFFFF;}
	.st1{fill-rule:evenodd;clip-rule:evenodd;fill:#FFFFFF;}
	.st2{stroke:#FFFFFF;stroke-width:73.2373;stroke-miterlimit:10;}
	.st3{fill:#00A54F;}
</style>
<g>
	
		<ellipse transform="matrix(0.7071 -0.7071 0.7071 0.7071 -202.3465 1015.1042)" class="st0" cx="1124.17" cy="751.81" rx="129.21" ry="129.21"/>
	<path class="st0" d="M255.48,1797.01L26.46,1922.86c-11.94,6.56-20.61,17.38-24.41,30.46c-3.8,13.08-2.28,26.86,4.28,38.8
		c8.68,15.8,24.64,25.68,42.69,26.41c9.23,0.38,18.42-1.79,26.57-6.27l279.4-153.54l5.35-127.78l-96.56-132.39L255.48,1797.01z"/>
	
		<ellipse transform="matrix(0.7071 -0.7071 0.7071 0.7071 -563.3221 644.8351)" class="st0" cx="496.72" cy="1002.41" rx="104.56" ry="104.56"/>
	<circle class="st0" cx="1936" cy="392.25" r="164"/>
	<path class="st0" d="M2911.16,44.51c-40.01-32.01-83.82-46.5-133.95-44.29c-42.91,1.88-85.09,15.6-125.89,28.86
		c-73.76,23.98-143.42,46.64-211.69-0.58c-5.15-3.56-11.37-4.37-16.95-2.76c-3.49-5.02-9.21-8.39-15.79-8.6
		c-11.03-0.36-20.27,8.33-20.61,19.37l-21.85,706.35c-31.71,13.81-78.2,29.42-132.74,33.49c-88,6.56-225.49-79.22-309.9-139.21
		c-50.61-35.97-115.25-45.84-174.27-26.55c-69.58,22.74-156.56,56.2-195.5,91.57c-56.78,51.58-99.17,115.8-125.99,190.9
		c-20.64,57.81-28.69,112.94-31.31,156.14c-11.84,2.39-24.42,4.23-37.61,5.22c-69.33,5.17-177.65-62.42-244.15-109.68
		c-39.87-28.34-90.8-36.12-137.3-20.92c-54.82,17.92-123.35,44.28-154.02,72.14c-44.74,40.63-78.13,91.24-99.26,150.4
		c-13.72,38.42-20.38,75.33-23.36,106.38c-7.65,1.02-15.64,1.72-23.9,2c-56.23,1.9-141.59-56.31-193.81-96.71
		c-31.31-24.22-72.23-32.19-110.32-21.43c-44.91,12.69-101.19,31.75-126.91,53.27c-37.51,31.38-66.17,71.2-85.2,118.34
		c-18.39,45.57-24.04,88.97-25.46,118.15c-0.95,19.37,15.53,35.06,34.83,33.25v0c15.79-1.48,28.1-14.33,28.88-30.18
		c1.19-24.11,5.9-61.21,21.74-99.5c17.01-41.11,42.72-74.4,76.88-99.71c-1.45,5.78-2.46,11.7-2.98,17.72l-26.49,306.52
		c1.66,5.09,4.11,9.88,7.3,14.26l285.89,391.99c-1.11,13.13,1.92,26.24,8.86,37.74c11.52,19.08,31.72,30.47,54.03,30.47
		c11.42,0,22.66-3.14,32.5-9.08l337.28-203.61l0.19-158.05l-125.87-158.62l-0.29,245.47l-234.5,141.56L415.95,1590.8l96.44-298.48
		c1.71-5.3,3.01-10.69,3.91-16.11c8.53,5.16,17.21,9.86,26.03,14.09c35.67,17.09,73.48,26.5,112.71,28.1
		c8.41,0.34,16.9,0.32,25.43-0.05c8.08-0.36,15.92-1.04,23.52-1.96c8.13,11.57,22.31,18.51,37.57,16.45h0
		c17.65-2.38,31.27-16.21,33.74-33.42c5.14-1.84,9.94-3.69,14.34-5.5c18.18-7.47,25.35-29.44,15.06-46.19h0
		c-5.29-8.61-14.1-13.91-23.58-14.99c3.3-19.57,8.47-40.85,16.43-62.55c18.94-51.61,49.01-94.01,89.93-126.98
		c-1.51,7.21-2.45,14.57-2.79,22.02l-17.33,379.8c2.3,6.21,5.57,11.99,9.73,17.24l348.5,439.18c-1.74,4.05-3.19,8.26-4.26,12.62
		c-5.13,20.74-1.87,42.24,9.17,60.54c14.62,24.21,40.26,38.67,68.58,38.67c14.49,0,28.76-3.99,41.25-11.53l428.1-258.43l0.24-200.61
		l-159.76-201.33l-0.36,311.57l-283.45,171.11l-271.13-341.68l104.09-373.38c1.85-6.63,3.18-13.35,4.02-20.09
		c10.79,5.94,21.74,11.31,32.85,16.09c44.9,19.31,92.05,29.03,140.57,29.03c10.4,0,20.88-0.45,31.4-1.34
		c18.9-1.61,36.73-4.58,53.27-8.36c8.89,4.74,19.33,6.88,30.2,5.42c16.98-2.29,31.03-12.94,38.2-27.47
		c4.19-1.76,8.17-3.52,11.91-5.24c22.08-10.14,29.82-37.62,16.28-57.79l0,0c-4.82-7.18-11.66-12.31-19.31-15.07
		c3.75-30.34,10.89-65.17,24-100.88c24.04-65.51,62.2-119.32,114.14-161.17c-1.91,9.15-3.11,18.5-3.54,27.95l-21.99,482.07
		c2.92,7.88,7.07,15.22,12.35,21.88l495.92,624.96c15.27,19.24,38.13,30.28,62.73,30.28c18.2,0,35.37-6,49.66-17.34
		c34.55-27.42,40.36-77.84,12.94-112.4l-396.75-499.99l132.12-473.92c2.35-8.42,4.04-16.94,5.11-25.5
		c13.7,7.54,27.6,14.36,41.69,20.42c57,24.51,116.84,36.85,178.42,36.85c13.21,0,26.5-0.57,39.86-1.71
		c44.2-3.77,83.85-13.39,116.96-24.47l-0.33,10.54c-0.34,11.04,8.33,20.27,19.37,20.61c0.21,0.01,0.42,0.01,0.63,0.01
		c10.76,0,19.64-8.55,19.98-19.38l0.84-27.19c4.21-1.8,8.24-3.6,12.08-5.36c28.02-12.87,37.85-47.76,20.66-73.35l0,0
		c-7.19-10.7-17.89-17.82-29.67-20.69l13.45-434.85c33.44,22.79,69.61,33.97,109.89,33.97c3.25,0,6.52-0.07,9.82-0.22
		c42.91-1.88,85.09-15.6,125.89-28.87c73.76-23.98,143.42-46.64,211.69,0.58c5.96,4.12,13.7,4.7,20.2,1.5
		c6.51-3.2,10.77-9.67,11.15-16.92c3.97-77.02,7.94-153.83,11.9-230.42C2918.97,54.73,2916.19,48.53,2911.16,44.51z"/>
</g>
</svg>
