<svg xmlns="http://www.w3.org/2000/svg" viewBox="0 0 137.6 181.07"><defs><style>.cls-1{fill:#234f5a;}</style></defs><g id="Layer_2" data-name="Layer 2"><g id="Layer_1-2" data-name="Layer 1"><rect class="cls-1" x="18.7" y="149.43" width="99.37" height="8.09"/><rect class="cls-1" x="18.7" y="126.61" width="99.37" height="8.09"/><rect class="cls-1" x="18.7" y="103.79" width="99.37" height="8.09"/><rect class="cls-1" x="18.7" y="80.97" width="99.37" height="8.09"/><rect class="cls-1" x="18.7" y="58.15" width="99.37" height="8.09"/><rect class="cls-1" x="56.06" y="25.87" width="62.01" height="8.09"/><path class="cls-1" d="M121.72,0H38.46V.72L.72,38.57H0V165.19a15.89,15.89,0,0,0,15.88,15.88H121.72a15.89,15.89,0,0,0,15.88-15.88V15.88A15.89,15.89,0,0,0,121.72,0ZM38.46,12.18v18.6a7.8,7.8,0,0,1-7.8,7.79H12.14Zm91.06,153a7.81,7.81,0,0,1-7.8,7.8H15.88a7.8,7.8,0,0,1-7.79-7.8V46.66H30.66A15.9,15.9,0,0,0,46.55,30.78V8.09h75.17a7.8,7.8,0,0,1,7.8,7.79Z"/></g></g></svg>