<?xml version="1.0" encoding="utf-8"?>
<!-- Generator: Adobe Illustrator 25.4.1, SVG Export Plug-In . SVG Version: 6.00 Build 0)  -->
<svg version="1.1" id="Layer_1" xmlns="http://www.w3.org/2000/svg" xmlns:xlink="http://www.w3.org/1999/xlink" x="0px" y="0px"
	 viewBox="0 0 2217.67 1879.94" style="enable-background:new 0 0 2217.67 1879.94;" xml:space="preserve">
<style type="text/css">
	.st0{fill:#FFFFFF;}
	.st1{fill-rule:evenodd;clip-rule:evenodd;fill:#FFFFFF;}
	.st2{stroke:#FFFFFF;stroke-width:73.2373;stroke-miterlimit:10;}
	.st3{fill:#00A54F;}
</style>
<g>
	<path class="st2" d="M1112.64,295.85c60.32-82.27,134.96-151.1,227.62-199.05c133.23-68.94,272.11-77.24,413.49-32.13
		c200.61,64,337.85,197.5,397.8,398.6c68.75,230.63,17.69,440.57-156.87,606.97c-195.33,186.21-400.22,362.44-602.35,541.43
		c-80.93,71.66-164.85,140.01-248.88,208.05c-38.32,31.03-29.5,32.14-69.98-0.65c-88.53-71.69-176.49-144.22-262.01-219.46
		c-172.32-151.62-342.94-305.19-514.09-458.15c-67.18-60.04-134.1-120.39-177.82-201.24C10.27,738.17,6.54,534.45,122.95,336.01
		C239.85,136.72,420.35,38.88,650.85,38.3c127.32-0.32,238.63,48.99,334.45,130.74C1030.19,207.34,1069.36,252.35,1112.64,295.85z"
		/>
	<path class="st3" d="M650.85,38.3c-230.5,0.58-410.99,98.42-527.9,297.71c-116.4,198.43-112.67,402.16-3.4,604.21
		c43.72,80.84,110.64,141.2,177.82,201.24c151.23,135.15,302.11,270.71,454.06,405.06V48.79C719.08,41.84,685.57,38.21,650.85,38.3z
		"/>
	<path class="st3" d="M2151.55,463.27c-59.95-201.1-197.19-334.6-397.8-398.6c-97.37-31.06-193.55-36.79-287.51-14.84v1496.58
		c177.96-156.78,356.89-312.63,528.44-476.18C2169.24,903.84,2220.3,693.9,2151.55,463.27z"/>
	<path class="st0" d="M1340.26,96.8c-92.66,47.95-167.3,116.78-227.62,199.04c-43.29-43.5-82.46-88.5-127.34-126.8
		C915.61,109.58,837.71,67.31,751.43,48.79v1497.73c20.01,17.69,39.97,35.44,60.03,53.09c85.51,75.24,173.48,147.77,262.01,219.46
		c40.48,32.79,31.67,31.68,69.98,0.65c84.03-68.04,167.96-136.39,248.88-208.05c24.6-21.78,49.25-43.53,73.91-65.25V49.83
		C1423.76,59.76,1381.74,75.34,1340.26,96.8z"/>
</g>
</svg>
