<svg id="Layer_1" data-name="Layer 1" xmlns="http://www.w3.org/2000/svg" viewBox="0 0 174.49 174.51"><defs><style>.cls-1{fill:#fff;}</style></defs><path class="cls-1" d="M170,148.45l-37.4-37.4a2.64,2.64,0,0,0-3.75,0l-2,2-8.63-8.63a65.68,65.68,0,1,0-13.81,13.82l8.63,8.62-2,2a2.63,2.63,0,0,0,0,3.74l37.4,37.41a15.27,15.27,0,0,0,21.6-21.6ZM65.53,122.56a57,57,0,1,1,40.32-16.69A56.68,56.68,0,0,1,65.53,122.56ZM166.28,166.3a10,10,0,0,1-14.12,0l-35.52-35.53,1.84-1.84,35.16,35.17A10.69,10.69,0,0,0,167,165.52,10.27,10.27,0,0,1,166.28,166.3Z"/></svg>